<svg id="Camada_4" data-name="Camada 4" xmlns="http://www.w3.org/2000/svg" viewBox="0 0 929.55 920.27"><defs><style>.cls-1{fill:#ededed;}.cls-2{fill:none;stroke:#ededed;stroke-miterlimit:10;}</style></defs><path class="cls-1" d="M175.35,226.31c16.64,7.88,32.82,16.3,48.84,24.92s31.89,17.41,47.52,26.5a37.56,37.56,0,0,1,5.34,4c1.65,1.48,3.21,3.09,4.82,4.63s3.29,3,5,4.43l5.11,4.3,20.42,17.2,40.86,34.41L516.68,484.36,680.1,622l81.71,68.81L779,711.86c5.66,7.1,11.39,14.12,17,21.31,11.24,14.29,22.34,28.74,33.06,43.67-16.53-8-32.66-16.5-48.66-25.15-8-4.28-15.92-8.73-23.89-13.1l-23.66-13.36-81.71-68.82L487.69,518.78,324.27,381.15l-40.85-34.41L263,329.54l-5.11-4.3c-1.69-1.45-3.41-2.86-5.21-4.17s-3.64-2.59-5.39-4a37.63,37.63,0,0,1-4.88-4.57c-11.61-13.86-23-28-34.19-42.33S185.94,241.37,175.35,226.31Z" transform="translate(-27.97 -38.83)"/><path class="cls-1" d="M166.08,810.73c9.82-15.9,20.13-31.28,30.62-46.47s21.12-30.24,32-45a39,39,0,0,1,4.65-4.95c1.68-1.51,3.48-2.91,5.2-4.37s3.4-3,5-4.57l4.9-4.69,19.59-18.76,39.19-37.51L464,494.37l156.76-150,78.37-75,23.07-15.13c7.77-5,15.46-10,23.31-14.88,15.61-9.84,31.37-19.52,47.56-28.77-9.94,15.77-20.31,31.09-30.82,46.26-5.21,7.63-10.58,15.09-15.88,22.64L730.28,301.8l-78.38,75L495.15,526.88l-156.75,150-39.19,37.51-19.6,18.76-4.89,4.69c-1.65,1.55-3.26,3.13-4.79,4.81s-3,3.39-4.59,5a38.93,38.93,0,0,1-5.15,4.43c-15.22,10.26-30.72,20.21-46.34,30S182.39,801.61,166.08,810.73Z" transform="translate(-27.97 -38.83)"/><line class="cls-2" x1="406.22" y1="515.26" x2="406.22" y2="515.26"/><path class="cls-1" d="M821.39,792.94a27.65,27.65,0,0,1,1-7,30.89,30.89,0,0,1,1.14-3.36l.78-1.59.39-.8.46-.75a27,27,0,0,1,4.36-5.55,28,28,0,0,1,5.67-4.2,27,27,0,0,1,13.57-3.31,26.51,26.51,0,0,1,13.35,4l-2,.37a436.25,436.25,0,0,0,71.69-137.46A430.36,430.36,0,0,0,950.3,479.72a440.05,440.05,0,0,0-36-149.68,447.81,447.81,0,0,0-36.84-67.59,453.7,453.7,0,0,0-47.79-60.14l13.78-4.4a35.41,35.41,0,0,1-2.36,8.85,34.4,34.4,0,0,1-4.7,7.86,33.12,33.12,0,0,1-14.86,10.51,34.7,34.7,0,0,1-4.46,1.24,35.53,35.53,0,0,1-4.59.57,33.05,33.05,0,0,1-9.19-.73,34.2,34.2,0,0,1-8.69-3.23,35.94,35.94,0,0,1-7.46-5.5,35.18,35.18,0,0,1-5.67-7.35,33.28,33.28,0,0,1-3.45-8.66c-.09-.38-.2-.76-.28-1.14l-.19-1.15c-.12-.77-.26-1.54-.34-2.32a36.22,36.22,0,0,1-.13-4.66,33.31,33.31,0,0,1,.47-4.65,34.09,34.09,0,0,1,1.16-4.55,32.5,32.5,0,0,1,4.11-8.41,33.41,33.41,0,0,1,6.26-7,34.85,34.85,0,0,1,7.94-5,36.06,36.06,0,0,1,9-2.63l-4.81,15.56a445.76,445.76,0,0,0-204.6-103.7,451.29,451.29,0,0,0-76.46-9.45l11.91-11.18a36.55,36.55,0,0,1-22.31,33.12A36.11,36.11,0,0,1,496,87.21a36.8,36.8,0,0,1-37.2-35.34l12.66,11.48a448.22,448.22,0,0,0-81.2,13.2A442.56,442.56,0,0,0,180.51,199.89l-3.45-22.1a39.41,39.41,0,0,1,13.09,11.33,38.88,38.88,0,0,1,6.94,15.95,35.92,35.92,0,0,1,.63,8.71l-.11,2.18c-.07.73-.19,1.45-.29,2.18s-.2,1.45-.36,2.17l-.52,2.13a38.73,38.73,0,0,1-8.13,15.45,39.51,39.51,0,0,1-61.59-2l23.37.22A430.58,430.58,0,0,0,82.35,367a425.39,425.39,0,0,0-15.93,72A436.74,436.74,0,0,0,93.26,656a439,439,0,0,0,76,125.3l-15.33-6a43,43,0,0,1,19.26,2.44,42.37,42.37,0,0,1,16.19,10.67,43.18,43.18,0,0,1,9.8,16.71c.44,1.56.87,3.15,1.17,4.74l.37,2.41a22.27,22.27,0,0,1,.24,2.42,41.84,41.84,0,0,1-.39,9.68l-5.19-15.31a453.71,453.71,0,0,0,64,51.92l8.69,5.59,4.34,2.8,2.17,1.4c.73.46,1.49.87,2.23,1.31l8.92,5.21,4.46,2.62,2.23,1.31,2.29,1.2,9.16,4.81,4.58,2.41c.77.4,1.52.82,2.3,1.19l2.34,1.1,9.38,4.38c3.13,1.45,6.21,3,9.43,4.3a455.46,455.46,0,0,0,78.81,26A460.47,460.47,0,0,0,493.38,938l-10.66,10.5a35.56,35.56,0,0,1,2.86-13.14,35.06,35.06,0,0,1,7.49-11,34.54,34.54,0,0,1,36.61-7.88,33.83,33.83,0,0,1,11,6.81,33.49,33.49,0,0,1,10.74,22.61l-9-7.57A443.57,443.57,0,0,0,621.1,926.1a435.52,435.52,0,0,0,75.54-26.37l2.3-1,2.25-1.1,4.51-2.21,9-4.41c.75-.37,1.51-.73,2.25-1.12l2.2-1.21,4.4-2.42,8.81-4.84c1.48-.78,2.91-1.66,4.34-2.54l4.29-2.61L749.6,871c5.65-3.61,11.16-7.44,16.73-11.18,1.41-.91,2.73-2,4.08-3l4-3,8.09-6c5.27-4.16,10.43-8.45,15.66-12.67,5.06-4.41,10-8.93,15.06-13.4l14.42-14.08-.08,2.5a26.77,26.77,0,0,1-6.21-17.31Zm3.5,0a23.21,23.21,0,0,0,5.57,14.9l1.12,1.3-1.2,1.2-14.33,14.44-14.93,13.81c-5.17,4.39-10.29,8.85-15.51,13.18l-8,6.27-4,3.14c-1.35,1-2.65,2.12-4.06,3.08l-8.28,5.92-4.14,3c-1.38,1-2.74,2-4.18,2.91l-8.53,5.59-4.26,2.79c-1.42.94-2.84,1.88-4.32,2.72L727,892.38,722.65,895l-2.19,1.3c-.74.43-1.49.82-2.24,1.23l-9,4.85-4.49,2.43L702.5,906l-2.29,1.12L691,911.6l-4.6,2.23-2.3,1.11-2.35,1L672.38,920l-4.69,2-2.35,1L663,924l-9.56,3.66-4.79,1.83-2.39.92-2.43.82-9.72,3.23-4.87,1.63-2.43.82c-.81.27-1.64.48-2.46.72a476.89,476.89,0,0,1-80.39,17.1l-8,1-1-8.56a16.42,16.42,0,0,0-6-10.73A15.8,15.8,0,0,0,517.61,933a15.16,15.16,0,0,0-10.2,5.14,14.78,14.78,0,0,0-3.66,10.4l.49,10.59-11.15-.1-21.94-.2c-7.3-.31-14.61-.8-21.93-1.2-1.84-.07-3.65-.3-5.48-.49l-5.46-.59-10.94-1.18c-.92-.1-1.83-.19-2.74-.31l-2.72-.42-5.44-.85-10.89-1.7a457.94,457.94,0,0,1-85-23.59c-3.49-1.2-6.85-2.74-10.27-4.14L300.05,920l-2.55-1.09c-.85-.37-1.67-.79-2.51-1.18l-5-2.39-10-4.8-2.5-1.2-2.44-1.31-4.89-2.62-9.76-5.27c-.81-.45-1.64-.88-2.43-1.34l-2.38-1.43-4.75-2.87-9.5-5.75a459.68,459.68,0,0,1-70.22-54.36l-6.61-6.21,1.42-9.1a6.34,6.34,0,0,0,0-1.74,1,1,0,0,0-.05-.42c0-.14,0-.28-.07-.42s-.17-.53-.21-.81a7.94,7.94,0,0,0-1.78-2.81,6.81,6.81,0,0,0-2.81-1.74,7.4,7.4,0,0,0-3.26-.34l-9,1.17-6.33-7.15a457.38,457.38,0,0,1-83.08-135.4,451.79,451.79,0,0,1-22.51-76.52A459.22,459.22,0,0,1,83.43,284.31a468.74,468.74,0,0,1,43.45-66.21L139,202.65l11.26,15.67a10.5,10.5,0,0,0,3.47,3.06,10.16,10.16,0,0,0,4.44,1.25,10.66,10.66,0,0,0,4.6-.78,11.11,11.11,0,0,0,3.83-2.74,10.73,10.73,0,0,0,2.57-8.92,11,11,0,0,0-5.43-7.68l-16.12-9.12,12.67-13A469.51,469.51,0,0,1,470,39.54l12.37-.71L482.62,51a13.28,13.28,0,0,0,22.51,9.08,13.54,13.54,0,0,0,4.14-9.3L509.66,39l11.52.61a472.65,472.65,0,0,1,80.08,11.15,465.62,465.62,0,0,1,212,111.48L827.16,175l-18.67,2.79a18.78,18.78,0,0,0-4.27,1.17,17.39,17.39,0,0,0-3.8,2.31,15.58,15.58,0,0,0-3,3.28,14.81,14.81,0,0,0-2,4,19.7,19.7,0,0,0-.6,2.16,18.5,18.5,0,0,0-.26,2.24,19.27,19.27,0,0,0,0,2.28c0,.37.11.74.15,1.12l.07.56c0,.19.09.36.13.55a16.25,16.25,0,0,0,1.58,4.23,18.26,18.26,0,0,0,2.71,3.66,18.49,18.49,0,0,0,3.62,2.79,17.51,17.51,0,0,0,4.25,1.68,16.81,16.81,0,0,0,4.59.45,17.74,17.74,0,0,0,2.3-.23,19.39,19.39,0,0,0,2.24-.58,16.86,16.86,0,0,0,7.63-5.14,18.3,18.3,0,0,0,2.5-3.95,19.55,19.55,0,0,0,1.32-4.5l2.8-16.55,11,12.15a451.64,451.64,0,0,1,47.84,63.39A447.11,447.11,0,0,1,948,401.14a455.1,455.1,0,0,1-12.77,233.24A461.7,461.7,0,0,1,862.5,772.61l-.83,1.09-1.18-.73a23.28,23.28,0,0,0-11.81-3.44,23.77,23.77,0,0,0-11.9,3,24.66,24.66,0,0,0-4.94,3.73,23.49,23.49,0,0,0-3.77,4.88l-.4.67-.34.69-.66,1.4a25.77,25.77,0,0,0-1,2.93A24.7,24.7,0,0,0,824.89,792.94Z" transform="translate(-27.97 -38.83)"/></svg>